<svg xmlns="http://www.w3.org/2000/svg" version="1.1" xmlnsXlink="http://www.w3.org/1999/xlink" xmlnsSvgjs="http://svgjs.dev/svgjs" width="2000" height="2250" viewBox="0 0 2000 2250"><g transform="matrix(1,0,0,1,3.410605131648481e-13,0)"><svg viewBox="0 0 320 360" data-background-color="#ffffff" preserveAspectRatio="xMidYMid meet" height="2250" width="2000" xmlns="http://www.w3.org/2000/svg" xmlnsXlink="http://www.w3.org/1999/xlink"><g id="tight-bounds" transform="matrix(1,0,0,1,0,0)"><svg viewBox="0 0 320 360" height="360" width="320"><g><svg></svg></g><g><svg viewBox="0 0 320 360" height="360" width="320"><g><path xmlns="http://www.w3.org/2000/svg" d="M20.961 227.22l3.726 4.658-1.863-6.056c-0.466-2.795-3.726 0.466-1.863 1.398M25.153 224.425c1.397 2.329 2.795 4.658 2.795 6.987 0 3.261 2.795 4.658 5.123 5.589-3.261-3.726-5.124-13.974-7.918-12.576M204.017 26.929c7.918 0 15.371-0.932 23.756 0.931 20.495 5.124 37.729 15.371 49.374 29.811l32.606 52.169c1.397 13.042 4.192 27.482 3.726 43.319 3.261 0 2.795-4.658 6.521-5.59-3.726 9.316-5.59 20.961-6.521 34.469-2.329-7.453 0-18.632 0.466-24.687-3.261 5.124-5.124 1.397-5.124-0.932 0.466-3.726-1.397-3.261-2.795-4.658-5.124-4.658-8.384-9.782-12.11-17.7 2.329-6.055 2.795-14.905-4.658-19.563-2.329-1.397-5.124-3.726-6.521-7.453-1.863-5.124-5.124-11.179-4.193-19.097 0.466-2.329-6.987 5.124-11.179 1.863-18.166-12.576-36.332-27.016-58.224-39.127-11.645 0-20.029-4.192-24.221-9.316-3.726-4.658-0.932-10.713 4.658-11.179 3.261 0 6.987-0.932 9.782 0.932 0.466-1.863 2.329-4.192 4.657-4.192M157.904 16.215l0.932 0.466c4.658 0.932 6.987 7.453 12.11 5.124 0 3.261 0.466 6.521-0.466 8.85-1.397 3.726-5.59 3.726-8.85 3.726-31.208-1.863-49.374 11.179-68.471 22.358-5.124 3.261-10.713 5.59-14.906 9.782-20.029 18.632-41.921 35.866-47.045 70.335l-4.192 38.195c-0.466 4.192-5.124 8.384-4.192 13.508l3.26 22.824c-3.261-3.261-5.124 0.932-4.192 2.795 0.466 1.397 2.329 6.055 5.124 1.863 3.726 6.987 7.453 20.495 12.576 26.55 15.837 18.632 36.332 35.4 53.101 52.169 4.192-0.932 7.453-0.932 8.384-3.727 1.397 2.795-1.397 5.59-3.726 6.056 7.453 4.658 15.837 8.85 27.016 9.781 14.44 0.932 27.948 3.261 40.524 6.522 6.521-1.863 13.042-2.795 20.029-3.261 2.329 0 3.726-3.726 6.521-4.658l0.466-4.658c2.795 4.192 2.329-1.397 0.466-4.192 3.261 2.795 4.192 5.124 5.589 6.987 0-1.397 3.726-6.521 3.727-0.466l0.931-6.055c1.397-0.932 1.863 5.124 3.261 0.931 1.397-4.192 4.192-0.932 6.987-2.329-0.932 1.863-0.466 5.59 2.794 3.261l3.727-3.261c2.329 5.59 6.055 3.261 7.918 2.329 20.495-13.042 40.99-28.413 60.553-43.784l-0.466 6.055 2.329-7.453c2.329 2.329 4.192 0.466 5.124-0.931 2.795-4.658 6.521-9.316 12.577-13.508-7.453 20.029-16.303 35.866-27.482 48.908l-4.658 5.59c0 3.261-0.932 7.453-4.658 7.918-1.863 0.466-5.59-0.932-8.384 1.863-1.397 1.863 3.261 5.59-0.466 2.795-3.261-2.329-6.521 0-10.248 0.932-2.795 0.932 1.863 3.726 2.795 5.589 0.932 1.863 1.863 3.726 1.398 6.056l-5.124-5.59c-6.055 3.261-9.782 9.316-14.906 13.974-2.329 1.863-1.397 5.124-1.397 7.918-3.261 0-6.987-0.932-8.85 0.932-1.397 1.863-0.932 4.658-0.932 7.453-4.658-0.466-5.124-7.453-9.315-6.056-4.192 0.932-8.85 1.397-12.577 3.727 2.795 5.59-4.658 2.329-3.726 3.26-6.987-4.192-13.042-7.453-20.495-4.658-15.837-5.124-35.4-2.795-49.84-0.931 0-2.329 0.466-4.658-0.466-5.124-0.932 2.329-3.726 1.397-3.26 1.397-8.85-6.055-17.7-9.782-27.016-14.905-8.384 0.932-16.303-3.261-18.632-5.59-6.521-6.055-13.974-2.795-20.029-4.192-13.042-3.261-17.7-16.769-19.098-26.084-0.932-4.658-4.658-6.521-6.055-6.056-6.055-19.563-15.371-37.263-22.824-55.429-1.863-4.658-1.397-9.316-1.397-14.44 2.329 0.932 4.658 0.466 4.192-2.794-2.329-15.371-7.918-27.016-13.974-38.195 3.261-15.837 3.726-34.469 11.179-48.443 6.521-12.576 18.632-19.098 27.016-29.811 2.795-3.726 2.795-8.85 5.59-12.11 9.316-9.316 18.632-19.098 28.879-27.482 4.658-3.726 10.247 0 17.234-1.397 2.329-8.384 11.645-15.837 20.495-13.508 3.726 0.932 11.179-8.85 13.508-9.782 3.726-1.397 1.863 3.726 1.863 6.987 8.85-6.987 20.961-10.713 32.14-14.906" fill="#000000" fill-rule="nonzero" stroke="none" stroke-width="1" stroke-linecap="butt" stroke-linejoin="miter" stroke-miterlimit="10" stroke-dasharray="" stroke-dashoffset="0" font-family="none" font-weight="none" font-size="none" text-anchor="none" style="mix-blend-mode: normal" data-fill-palette-color="tertiary"></path></g><g transform="matrix(1,0,0,1,64,102.74406332453826)"><svg viewBox="0 0 192 154.51187335092348" height="154.51187335092348" width="192"><g><svg viewBox="0 0 192 154.51187335092348" height="154.51187335092348" width="192"><g><svg viewBox="0 0 192 154.51187335092348" height="154.51187335092348" width="192"><g><svg viewBox="0 0 192 154.51187335092348" height="154.51187335092348" width="192"><g id="textblocktransform"><svg viewBox="0 0 192 154.51187335092348" height="154.51187335092348" width="192" id="textblock"><g><svg viewBox="0 0 192 154.51187335092348" height="154.51187335092348" width="192"><g transform="matrix(1,0,0,1,0,0)"><svg width="192" viewBox="2.25 -35.20000076293945 56.849998474121094 45.75" height="154.51187335092348" data-palette-color="#000000"><path d="M8.3 0.5Q8.2 0.5 8.13 0.38 8.05 0.25 8.1 0L8.1 0Q8.8-6.2 9.15-10.83 9.5-15.45 9.5-20.75L9.5-20.75Q9.5-24.6 9.28-26.78 9.05-28.95 8.5-29.95 7.95-30.95 6.95-30.95L6.95-30.95Q4.85-30.95 3.35-26.9L3.35-26.9Q3.15-26.3 3.03-26.1 2.9-25.9 2.6-25.9L2.6-25.9Q2.25-25.9 2.25-26.8L2.25-26.8Q2.25-28.75 3.18-30.7 4.1-32.65 5.6-33.93 7.1-35.2 8.7-35.2L8.7-35.2Q11.35-35.2 12.28-31.55 13.2-27.9 13.2-21.6L13.2-21.6Q13.2-17.6 12.75-10.8L12.75-10.8 12.85-10.8 17.15-20.05Q21.15-28.45 21.75-29.9L21.75-29.9Q22.2-30.8 23.1-31.68 24-32.55 24.73-32.93 25.45-33.3 25.35-32.8L25.35-32.8Q25.15-31.75 25.13-31.03 25.1-30.3 25.1-29.2L25.1-29.2Q25.1-26.5 25.23-22.95 25.35-19.4 25.5-17.25L25.5-17.25Q25.5-17.1 25.7-14.2L25.7-14.2Q26-10.45 26.15-7.85L26.15-7.85 26.25-7.85Q28.25-12.45 28.5-13.1L28.5-13.1 30.8-18.3 31.5-19.85Q32.7-22.65 33.27-24.33 33.85-26 33.85-27.65L33.85-27.65Q33.85-29 33.5-29.68 33.15-30.35 32.55-30.95L32.55-30.95Q32.4-31.05 33.1-32.15 33.8-33.25 34.68-34.23 35.55-35.2 36.1-35.2L36.1-35.2Q36.75-35.2 37.33-34.08 37.9-32.95 37.9-31.55L37.9-31.55Q37.9-30.4 37.4-28.88 36.9-27.35 35.9-25L35.9-25 26.65-4.2Q26.3-3.45 25.58-2.15 24.85-0.85 24.45-0.35L24.45-0.35Q24.15 0.05 23.75 0.28 23.35 0.5 23.2 0.5L23.2 0.5Q23 0.5 22.98 0.08 22.95-0.35 22.95-0.78 22.95-1.2 22.95-1.45L22.95-1.45Q22.95-4 22.65-8.68 22.35-13.35 22.25-15L22.25-15Q21.7-21.9 21.65-24.75L21.65-24.75 21.6-24.75Q19.8-21.15 16.38-13.7 12.95-6.25 12.1-4.1L12.1-4.1Q12-3.9 11.3-2.55 10.6-1.2 9.75-0.3L9.75-0.3Q9.35 0.1 8.93 0.3 8.5 0.5 8.3 0.5L8.3 0.5ZM41.75 10.55Q39.35 10.55 37.75 9.5 36.15 8.45 35.4 7.03 34.65 5.6 34.65 4.55L34.65 4.55Q34.65 3.35 35.6 2.35 36.55 1.35 37.75 0.95L37.75 0.95 38.2 0.85Q38.35 0.85 38.4 0.98 38.45 1.1 38.45 1.35L38.45 1.35Q38.75 4.15 39.7 5.98 40.65 7.8 43.4 7.8L43.4 7.8Q45.25 7.8 46.5 6.7 47.75 5.6 48.6 3.13 49.45 0.65 50.15-3.65L50.15-3.65 54.45-30.95 54.2-30.95Q53.2-30.95 51.55-31.3L51.55-31.3Q49.05-31.75 47.7-31.75L47.7-31.75Q45.35-31.75 44.2-31.13 43.05-30.5 42-29.4L42-29.4Q41.7-29.05 41.47-28.85 41.25-28.65 41.05-28.65L41.05-28.65Q40.7-28.65 40.7-29L40.7-29 40.75-29.55Q41.2-32.2 43.22-33.45 45.25-34.7 49-34.7L49-34.7Q50.6-34.7 52.35-34.45L52.35-34.45Q52.7-34.4 53.77-34.3 54.85-34.2 56-34.2L56-34.2Q57.05-34.2 57.67-34.3 58.3-34.4 59.1-34.7L59.1-34.7Q58.35-32.55 58.12-31.08 57.9-29.6 57.85-29.15L57.85-29.15 54.4-6.7Q53.1 1.65 49.8 6.1 46.5 10.55 41.75 10.55L41.75 10.55Z" opacity="1" transform="matrix(1,0,0,1,0,0)" fill="#000000" class="wordmark-text-0" data-fill-palette-color="primary" id="text-0"></path></svg></g></svg></g></svg></g></svg></g><g></g></svg></g></svg></g></svg></g></svg></g><defs></defs></svg><rect width="320" height="360" fill="none" stroke="none" visibility="hidden"></rect></g></svg></g></svg>